<?xml version="1.0" encoding="utf-8"?>
<!-- Generator: Adobe Illustrator 21.1.0, SVG Export Plug-In . SVG Version: 6.00 Build 0)  -->
<svg version="1.1" id="Layer_1" xmlns="http://www.w3.org/2000/svg" xmlns:xlink="http://www.w3.org/1999/xlink" x="0px" y="0px"
	 viewBox="0 0 380 448" style="enable-background:new 0 0 380 448;" xml:space="preserve">
<style type="text/css">
	.st0{opacity:0.78;}
	.st1{fill:#CC3333;}
	.st2{fill:#249B61;}
	.st3{fill:#038AB8;}
	.st4{fill:#D8A932;}
	.st5{fill:#FAF17F;}
	.st6{fill:#CC6699;}
	.st7{fill:#96CAE3;}
	.st8{fill:none;stroke:#000000;stroke-miterlimit:10;}
	.st9{fill:none;}
</style>
<g id="XMLID_1_" class="st0">
	<g id="XMLID_9_">
		<path id="XMLID_37_" class="st1" d="M274.6,164.8c0,0.3,6.5,3.5,6.2,3.6c-3.8,0.7-12.8,6.6-16.7,7.3c-0.2-3.6-3.4-11.8-3.5-21.3
			C264.4,156.8,270.7,162.8,274.6,164.8L274.6,164.8z"/>
		<path id="XMLID_36_" class="st2" d="M280,138.9l-0.2,0.3c-4.7,0.3-11.5,1.4-16.1,2.4c-16.2,3.6-31.8,10.2-46.6,17.5
			c5.7-16.7,1.4-37.9-12.6-49.6c10.2-0.8,20.3,2.8,29.8,6c10.5,3.6,21,7.7,30.7,13.2C270.2,131.6,275.3,135,280,138.9z"/>
		<path id="XMLID_33_" class="st3" d="M253.3,156.9c1.7,8.5,2.8,16.4,4.3,24.5c-7.3-6.7-17.3-13.5-26.2-17.9c7.3-2.4,13-5,20.2-7.2
			C252.1,156.3,253.3,156.9,253.3,156.9z"/>
		<path id="XMLID_32_" class="st4" d="M248.9,186.3l-0.1,0.2c-8,2-17.1,4.4-25.2,6.2l-0.2-0.7c2.1-8.2,3.8-17.7,0.9-25.9
			C229.9,174.2,240.4,181.5,248.9,186.3z"/>
		<path id="XMLID_31_" class="st5" d="M216.9,184.2h-0.4c-5.5,0.5-11.1,0.3-16.5-0.6c-1.8-0.3-3.6-0.7-5.3-1.1
			c-6.6-1.5-12.9-3.4-19.3-5.7v-0.1c2.3,0.7,4.7,0.9,7.1,0.8c12.2-0.1,24.4-3.8,34.5-10.7C216.6,172.7,216.6,178.5,216.9,184.2z"/>
		<path id="XMLID_28_" class="st6" d="M201.9,122.5c6.7,10.9,9.7,23.9,8.4,36.6h-0.1c-2,2.6-5.1,4.1-8.1,5.3
			c-5.9,2.4-12,4.4-18.4,5.1c-6.3,0.7-14,0.8-19.8-1.9c6-14.8,14-28.8,22-42.6c2.3-4,5.4-7.1,7.7-11
			C197.3,115.9,199.9,119.1,201.9,122.5z"/>
		<path id="XMLID_26_" class="st7" d="M184.7,190.1c8.8,2.4,18.4,4,27.4,4.9c-18.4,4.2-35.9,9.9-54,11c-2.9,0.6-3.7-4.4-4.1-7.6
			c1.9-7.1,3.9-15.6,6.6-22.3C166.9,182.4,175.9,187.7,184.7,190.1z"/>
		<path id="XMLID_24_" class="st1" d="M149.2,181.3c-13.6-17.8-22.1-43.8-19.1-65.8c0.1-0.5-0.2-1-0.6-1.1l-0.1-0.2
			c19.8-3.2,40.1-7.2,59.9-10.4l0.1,0.1c-15.8,24.7-29.1,51-39.5,78.4C149.6,181.9,149.4,181.6,149.2,181.3z"/>
		<path id="XMLID_23_" class="st4" d="M149.2,181.3c0.2,0.3,0.5,0.6,0.7,0.9c-3.9,10.3-7.5,20.7-10.6,31.3
			c-4.3,14.5-7.8,29.4-9.4,44.5c-9.2-7.8-22.2-15.3-27.3-26.2c-0.1-0.4-0.1-0.8-0.1-1.2C111.1,210.5,130,191.7,149.2,181.3z"/>
		<path id="XMLID_22_" class="st6" d="M145.8,337.1l-0.1,0.1c-8.6-10.5-16-21.9-22.2-34l0.1-0.1c1.5-3.3,4.7-9.2,6.2-12.5
			C131.7,307.1,136.7,323.3,145.8,337.1z"/>
		<path id="XMLID_18_" class="st3" d="M129.5,114.3c0.4,0.2,0.7,0.7,0.6,1.1c-3,22.1,5.5,48,19.1,65.8c-19.2,10.3-38,29.2-46.6,49.2
			c-0.1-0.8-0.1-1.6-0.2-2.4c-2.9-39.5,6.7-79.9,27-114c0.1,0,0.1,0,0.1,0V114.3z"/>
		<path id="XMLID_16_" class="st5" d="M129,276.9c0.1,4.6,0.3,9.2,0.8,13.7c-4.9-3.6-11.3-7.3-16.3-10.9c5-7.2,11.5-14.5,16.4-21.7
			C129.3,264.3,129,270.6,129,276.9z"/>
		<path id="XMLID_12_" class="st7" d="M129.8,290.6c-1.5,3.3-4.7,9.2-6.2,12.5l-0.1,0.1c-3.8-7.5-7.2-15.3-10.1-23.2
			c0.1-0.1,0.1-0.2,0.2-0.2l0,0C118.5,283.3,124.9,287,129.8,290.6z"/>
		<path id="XMLID_11_" class="st2" d="M113.6,279.7c-0.1,0.1-0.1,0.2-0.2,0.2c-5.6-15.5-9.2-31.7-10.7-48.1
			c5.1,10.9,18.1,18.4,27.3,26.2C125,265.3,118.6,272.5,113.6,279.7L113.6,279.7z"/>
	</g>
	<g id="XMLID_10_">
		<path id="XMLID_77_" class="st8" d="M145.7,337.2c-8.6-10.6-16-22-22.2-34c-3.8-7.5-7.2-15.3-10.1-23.2
			c-5.6-15.5-9.2-31.7-10.7-48.1c-0.1-0.4-0.1-0.8-0.1-1.2c-0.1-0.8-0.1-1.6-0.2-2.4c-2.9-39.6,6.7-80,27-114.1
			c0-0.1,0.1-0.1,0.1-0.1"/>
		<path id="XMLID_76_" class="st8" d="M129.4,114.1c0.1,0,0.1,0,0.1,0c19.8-3.2,40.1-7.2,59.9-10.4"/>
		<path id="XMLID_75_" class="st8" d="M189.4,103.7C189.4,103.7,189.4,103.8,189.4,103.7c-15.9,24.8-29.1,51-39.6,78.5
			c-3.9,10.3-7.5,20.7-10.6,31.3c-4.3,14.5-7.8,29.4-9.4,44.5c-0.7,6.3-1,12.6-1,18.9c0.1,4.6,0.3,9.2,0.8,13.7
			c1.9,16.5,6.9,32.7,16,46.5c0.2,0.3,0.4,0.6,0.6,0.8"/>
		<path id="XMLID_73_" class="st8" d="M164,167.6c6-14.8,14-28.8,22-42.6c2.3-4,5.4-7.1,7.7-11"/>
		<path id="XMLID_69_" class="st8" d="M153.9,198.7c0.1-0.1,0.1-0.2,0.1-0.3c1.9-7.1,3.9-15.6,6.6-22.3"/>
		<path id="XMLID_68_" class="st8" d="M204,109.5c0.1,0,0.2,0,0.3,0c10.2-0.8,20.3,2.8,29.8,6c10.5,3.6,21,7.7,30.7,13.2
			c5.3,3,10.4,6.4,15.1,10.2c0.1,0.1,0.1,0.1,0.1,0.1"/>
		<path id="XMLID_67_" class="st8" d="M223.2,192.7c0.2,0,0.3-0.1,0.5-0.1c8.1-1.8,17.2-4.1,25.2-6.2"/>
		<path id="XMLID_66_" class="st8" d="M154,198.3c0.4,3.3,1.2,8.1,4.1,7.6c18.1-1.1,35.6-6.8,54-11"/>
		<path id="XMLID_65_" class="st8" d="M129.5,114.3c0.4,0.2,0.7,0.7,0.6,1.1c-3,22.1,5.5,48,19.1,65.8c0.2,0.3,0.5,0.6,0.7,0.9
			c0.1,0.1,0.2,0.2,0.2,0.3"/>
		<path id="XMLID_64_" class="st8" d="M149.9,180.9c-0.2,0.1-0.5,0.2-0.7,0.4c-19.2,10.3-38,29.2-46.6,49.2
			c-0.1,0.2-0.2,0.3-0.2,0.5"/>
		<path id="XMLID_63_" class="st8" d="M102.3,231.1c0.1,0.2,0.2,0.5,0.3,0.7c5.1,10.9,18.1,18.4,27.3,26.2"/>
		<path id="XMLID_62_" class="st8" d="M113.6,279.7c-0.1,0.1-0.1,0.2-0.2,0.2c-0.1,0.1-0.1,0.1-0.2,0.2"/>
		<path id="XMLID_60_" class="st8" d="M130,258c-5,7.2-11.4,14.5-16.4,21.7"/>
		<path id="XMLID_59_" class="st8" d="M113.3,279.6c0.1,0.1,0.2,0.1,0.2,0.2l0,0c5,3.6,11.4,7.3,16.3,10.9"/>
		<path id="XMLID_58_" class="st8" d="M129.8,290.6c-1.5,3.3-4.7,9.2-6.2,12.5"/>
		<path id="XMLID_56_" class="st8" d="M193.8,114.1c3.5,1.8,6,5,8.1,8.4c6.7,10.9,9.7,23.9,8.4,36.6c0,0.2,0,0.3-0.1,0.4"/>
		<path id="XMLID_54_" class="st8" d="M210.3,159c-2,2.6-5.1,4.1-8.1,5.3c-5.9,2.4-12,4.4-18.4,5.1c-6.3,0.7-14,0.8-19.8-1.9"/>
		<path id="XMLID_52_" class="st8" d="M160.6,176c6.4,6.4,15.4,11.6,24.1,14.1c8.8,2.4,18.4,4,27.4,4.9"/>
		<path id="XMLID_49_" class="st8" d="M204.4,109.4c14,11.8,18.3,32.9,12.6,49.6c-0.1,0.2-0.1,0.3-0.2,0.5"/>
		<path id="XMLID_46_" class="st8" d="M217,159c14.8-7.2,30.4-13.9,46.6-17.5c4.6-1,11.4-2.1,16.1-2.4"/>
		<path id="XMLID_45_" class="st8" d="M173.7,176.2c0.6,0.3,1.1,0.5,1.7,0.7c2.3,0.7,4.7,0.9,7.1,0.8c12.2-0.1,24.4-3.8,34.5-10.7
			c-0.4,5.7-0.5,11.5-0.2,17.2c0,0.1,0,0.1,0,0.2"/>
		<path id="XMLID_44_" class="st8" d="M175.4,176.9c6.3,2.3,12.7,4.2,19.3,5.7c1.8,0.4,3.5,0.8,5.3,1.1c5.4,0.9,11,1.1,16.5,0.6"/>
		<path id="XMLID_43_" class="st8" d="M223.5,191.8c2.1-8.2,3.8-17.7,0.9-25.9c5.5,8.2,16,15.5,24.5,20.4c0.1,0.1,0.2,0.1,0.2,0.2"
			/>
		<path id="XMLID_42_" class="st8" d="M231.1,163.7c0.1-0.1,0.2-0.1,0.3-0.1c7.3-2.4,13-5,20.2-7.2c0.6,0,1.7,0.6,1.7,0.6
			c1.7,8.5,2.8,16.4,4.3,24.5"/>
		<path id="XMLID_41_" class="st8" d="M231.1,163.4c0.1,0.1,0.2,0.1,0.3,0.2c8.9,4.4,18.9,11.2,26.2,17.9"/>
		<path id="XMLID_40_" class="st8" d="M274.8,164.8c-0.1,0-0.1-0.1-0.1-0.1c-4-2-10.3-8-14-10.4"/>
		<path id="XMLID_39_" class="st8" d="M260.7,154c0,0.1,0,0.2,0,0.3c0.1,9.5,3.3,17.7,3.5,21.3c3.8-0.7,12.8-6.6,16.7-7.3
			c0.3-0.1-6.2-3.3-6.2-3.6"/>
	</g>
</g>
<g id="XMLID_19_" class="st0">
	<g id="XMLID_146_">
		<path id="XMLID_135_" class="st7" d="M283.1,147.2c0.3,3.5-0.4,7.7-0.5,11.3c-4.7-2.4-9.8-4.5-15.1-6
			C272.3,151.2,282.6,147.3,283.1,147.2z"/>
	</g>
	<g id="XMLID_145_">
	</g>
</g>
<path id="XMLID_29_" class="st8" d="M267.9,152.5c1.4,0.3,2.9,0.8,4.2,1.2c1.8,0.6,3.6,1.4,5.3,2.1c0.9,0.4,1.8,0.8,2.7,1.2
	c0.6,0.3,1.2,0.6,1.9,0.8c0.5,0.2,0.6,0.1,0.6-0.5c0-0.7,0.1-1.4,0.1-2.1c0.2-2.7,0.7-5.4,0.3-8.1c-5,2.1-10.2,3.9-15.4,5.3"/>
<line class="st9" x1="193.4" y1="76.1" x2="193.4" y2="359.5"/>
</svg>
